. 
 
http://www.torrenting.com          :     Once & For all ;)


               www . Torrenting . Com 

(((((((((((((= Enjoy No RAR releases =))))))))))))))))))))


...................................NFO:....................................

.                                                                                                     
       
     
     
       
       
     
     
                                         
                                         
                EXVID                    
                                         
         
                                         
         Filled the Archives             
                                         
         
                                         
                With:                    
                                         
         
                                         
                                    
     E240                           
                                    
     SP               (C) 2009      
                                         
     
     
     
                                                                                  
                                                                                   
              Saw.IV.2007.Theatrical.Cut.DVDRip.XviD-EXViD                          
                                                                                   
                                                                                  
     
                                                                                               
EXViD aims to iNTERNAL those releases which have been lost in the archives.
EXViD aims to PRE non-internal releases which have poor sources and are likely skipped by others. 
http://www.imdb.com/title/tt0890870/
Subtitles: NL
Date: 2011.10

Director: Darren Lynn Bousman

Genres: Crime | Horror | Thriller

Plot:
Jigsaw and his apprentice Amanda are dead. Now, upon the news of Detective Kerry's murder, two
seasoned FBI profilers, Agent Strahm and Agent Perez, arrive in the terrified community to assist
the veteran Detective Hoffman in sifting through Jigsaw's latest grisly remains and piecing
together the puzzle. However, when SWAT Commander Rigg is abducted and thrust into a game, the
last officer untouched by Jigsaw has but ninety minutes to overcome a series of demented traps
and save an old friend or face the deadly consequences. 

Cast:
Tobin Bell 	 ... 	Jigsaw / John Kramer 
Costas Mandylor 	 ... 	Lt. Mark Hoffman 
Scott Patterson 	 ... 	Agent Peter Strahm 
Betsy Russell 	 ... 	Jill Tuck 
Lyriq Bent 	 ... 	Lt. Daniel Rigg 
Athena Karkanis 	 ... 	Agent Lindsey Perez 
Louis Ferreira 	 ... 	Art Blank (as Justin Louis) 
Simon Reynolds 	 ... 	Lamanna 
Donnie Wahlberg 	 ... 	Eric Matthews 
Angus Macfadyen 	 ... 	Jeff Denlon 
Shawnee Smith 	 ... 	Amanda Young (archive footage) 
Bahar Soomekh 	 ... 	Lynn Denlon 
Dina Meyer 	 ... 	Detective Allison Kerry 
Mike Realba 	 ... 	Detective Fisk 
Marty Adams 	 ... 	Ivan Landsness

Stats:
Format                           : AVI
Format/Info                      : Audio Video Interleave
File size                        : 700 MiB
Duration                         : 1h 28mn
Overall bit rate                 : 1 102 Kbps
Writing application              : VirtualDubMod 1.5.10.2 (build 2540/release)
Writing library                  : VirtualDubMod build 2540/release

Video
ID                               : 0
Format                           : MPEG-4 Visual
Format profile                   : Advanced Simple@L5
Format settings, BVOP            : Yes
Format settings, QPel            : No
Format settings, GMC             : No warppoints
Format settings, Matrix          : Default (H.263)
Muxing mode                      : Packed bitstream
Codec ID                         : XVID
Codec ID/Hint                    : XviD
Duration                         : 1h 28mn
Bit rate                         : 963 Kbps
Width                            : 624 pixels
Height                           : 336 pixels
Display aspect ratio             : 1.857
Frame rate                       : 25.000 fps
Color space                      : YUV
Chroma subsampling               : 4:2:0
Bit depth                        : 8 bits
Scan type                        : Progressive
Bits/(Pixel*Frame)               : 0.184
Stream size                      : 611 MiB (87%)
Writing library                  : XviD 62

Audio
ID                               : 1
Format                           : MPEG Audio
Format version                   : Version 1
Format profile                   : Layer 3
Mode                             : Joint stereo
Codec ID                         : 55
Codec ID/Hint                    : MP3
Duration                         : 1h 28mn
Bit rate mode                    : Variable
Bit rate                         : 128 Kbps
Channel(s)                       : 2 channels
Sampling rate                    : 48.0 KHz
Stream size                      : 80.6 MiB (12%)
Alignment                        : Aligned on interleaves
Interleave, duration             : 24 ms (0.60 video frame)
Interleave, preload duration     : 517 ms
Writing library                  : LAME3.90.
Encoding settings                : -m j -V 4 -q 2 -lowpass 17.6 --abr 128




Release notes:
DiAMOND did the UNRATED, this is the THEATRiCAL cut.

See http://www.movie-censorship.com/report.php?ID=4718 for differences.

enjoy!

Looking for:
75TB+ Archives
DUTCH/FLEMiSH Archives
                                                                                                    
Greets: CRBS EPiSODE FiCO FLS iLS KLASSiGER LiPSYNC MADE NODLABS RUNNER SPRiNTER      
   

                                                                    ASCII DONE BY XX^NFO 2oo9